<svg xmlns="http://www.w3.org/2000/svg" viewBox="0 0 501 501">
  <defs>
    <style>
      .cls-1,
      .cls-3,
      .cls-4 {
        fill: none;
        stroke-miterlimit: 10;
      }

      .cls-1 {
        stroke: #fff;
      }

      .cls-2 {}

      .cls-3,
      .cls-4 {
        stroke: #666;
      }

      .cls-3 {
        stroke-width: 32.23px;
      }

      .cls-4 {
        stroke-width: 30.99px;
      }
    </style>
  </defs>
  <g id="图层_2" data-name="图层 2">
    <g id="图层_1-2" data-name="图层 1">
      <rect class="cls-1" x="0.5" y="0.5" width="500" height="500" />
      <path class="cls-2"
        d="M231.94,419.91A20,20,0,0,1,217,386.57c16-17.89,16.34-24.07,18.14-58.36,1.49-28.36-6-49.16-8.73-54.79C210.7,257.33,61.67,118.55,47.2,105.7A20,20,0,0,1,59.92,70.75c16.55-.46,138.17-1.15,143.34-1.18h.12a19.91,19.91,0,0,1,9.2,2.24c.59.3,59.26,30.73,118.17,61.62,121.14,63.53,125.06,66.92,127.93,69.4.47.41,1,.83,1.54,1.28,16.8,13.66,32,34.27,29.52,92-2.35,54.49-20.13,69-37.25,76-3.77,2.76-8.58,4.24-16.62,6.34-5.82,1.53-14,3.48-24.35,5.81-22.45,5.06-50.8,10.95-70.63,15C330.56,401.41,239.77,419.91,231.94,419.91ZM230.22,380ZM111,110.19c16.54,15.34,36.66,34.06,56.43,52.51,88.31,82.4,90.06,85,91.9,87.79,7.16,10.71,17.76,41.87,15.77,79.82-1,18.59-2.23,31.72-4.79,42.34,53.93-10.48,143.65-28.93,160.33-34.19a37,37,0,0,1,6.67-3.33c2.81-1.14,3.57-1.45,5.11-3.95,2.31-3.73,6.33-13.47,7.33-36.76.9-20.78-.93-37.13-5.29-47.29-2.8-6.54-5.91-9.07-9.5-12l-1.74-1.43c-13.52-8.75-148.68-79.5-234.69-124.12C184.76,109.68,144.66,109.92,111,110.19ZM426.12,342.3l0,0ZM227.39,274.41h0ZM433.62,234Z" />
      <path class="cls-2"
        d="M223.4,420.39a26.25,26.25,0,0,1-16-5.41c-9.92-7.54-65.9-74.45-98.46-113.75-4-4.66-70.81-83.16-78.84-93C18.37,193.93,6.24,152.48,15,115c4.45-19,10.18-30.53,18.59-37.51,11.93-9.89,24.87-7.1,29.74-6.06,5.85,1.26,9.44,2.88,40.11,30.58,16,14.43,37.45,34.39,60.52,56.21,21.79,20.62,43.66,41.66,60,57.72,29.19,28.68,31.13,31.92,32.7,34.52.45.76.92,1.5,1.4,2.26,8.71,13.81,15.74,29.11,13.51,76.63-2.14,45.71-15.62,78.7-36.07,88.25A28.57,28.57,0,0,1,223.4,420.39Zm8.65-36.9h0ZM56.77,114.18a103.39,103.39,0,0,0-2.81,10c-6.11,26.09,3.4,53.94,7.12,58.8,7.82,9.56,77.7,91.62,78.41,92.44l.17.21c31.38,37.87,66.17,79,83,97.92,3.64-8.29,7.87-23,8.95-46,1.82-38.82-3.08-46.58-7.4-53.43-.45-.72-.9-1.44-1.34-2.16-5.29-6.36-38.5-39.23-84.51-82.81C98.44,151.27,69.86,125.28,56.77,114.18Zm166.41,158.1h0Zm-.78-1.17h0Z" />
      <ellipse class="cls-3" cx="93" cy="183.78" rx="4.5" ry="7.24" />
      <ellipse class="cls-4" cx="198.45" cy="299.35" rx="8.56" ry="16.35" />
    </g>
  </g>
</svg>