<?xml version="1.0" standalone="no"?>
<!DOCTYPE svg PUBLIC "-//W3C//DTD SVG 1.1//EN" "http://www.w3.org/Graphics/SVG/1.1/DTD/svg11.dtd"><svg t="1699421854256"
  class="icon" viewBox="0 0 1024 1024" version="1.1" xmlns="http://www.w3.org/2000/svg" p-id="1650"
  xmlns:xlink="http://www.w3.org/1999/xlink" width="16" height="16">
  <path
    d="M461.290539 754.73501c-22.58523 0-44.352894-12.733573-57.229541-34.153772-11.87513-19.744192-21.256687-39.467944-28.410379-71.536927-1.205908-5.395928-2.473134-13.796407-5.048463-30.658682-2.861477-19.110579-8.584431-57.02515-15.206707-89.502914-5.559441 36.790419-14.573094 81.572535-31.435369 121.326626-10.771417 25.344511-31.087904 55.941876-66.835928 57.699641-32.498204 1.328543-57.760958-23.198403-70.617166-46.703393-3.96519-7.276327-8.60487-20.582196-27.531497-79.078962l-3.801677-11.732056c-1.38986-4.251337-12.713134-7.480719-16.862275-8.053014H49.053892a41.511856 41.511856 0 0 1 0-83.003274H142.726387c26.570858 1.676008 75.808703 17.311936 91.403753 65.40519l3.801676 11.772934c4.557924 14.102994 10.505709 32.457325 15.206707 46.519441 15.063633-42.656447 21.318004-93.038882 25.242315-124.453812 0.756248-6.131737 1.451178-11.732056 2.043912-16.51481 4.782754-34.746507 28.430818-61.562635 58.844232-66.651976 36.156806-6.131737 62.911617 19.09014 75.87002 44.67992 16.351297 32.396008 27.511058 99.640719 37.46491 165.720399 0.960639 6.315689 2.043912 13.121916 2.779721 18.170379 3.49509-31.558004 7.010619-72.59976 10.096926-108.327345 4.803194-56.023633 9.361118-108.940519 13.939481-134.305469a271.615489 271.615489 0 0 1 16.003832-52.487665c11.507226-27.633693 22.932695-42.636008 38.221158-50.178044 18.640479-9.177166 44.250699-9.892535 65.282555-1.798643A78.179641 78.179641 0 0 1 643.832335 321.793533c8.175649 20.561756 14.000798 68.18491 23.341477 160.631058 2.289182 22.850938 4.680559 46.499002 5.82515 52.876008 0.347465 1.921277 0.69493 3.740359 1.021956 5.477684 4.598802-15.717685 7.603353-28.287745 10.219561-38.834331 4.087824-16.862275 6.969741-29.043992 13.26499-40.224192l0.69493-1.226347c6.131737-10.955369 22.319521-40.060679 55.676168-43.596647 22.769182-2.411816 44.332455 7.787305 64.117525 30.331657 18.681357 21.297565 28.287745 41.164391 35.298363 55.676168 4.598802 9.524631 7.317206 14.859242 10.117365 18.252136 9.647265 1.492056 34.031138 2.902355 95.409821 0.817564 7.664671-0.265709 11.486786-0.388343 14.205189-0.388343a41.511856 41.511856 0 0 1 0 83.003274c-1.430739 0-6.724471 0.183952-11.38459 0.327026-102.543074 3.49509-127.356168-1.451178-144.218444-13.837286-21.256687-15.635928-30.658683-34.991776-38.834331-52.058443a205.658443 205.658443 0 0 0-12.263473-22.973573c-0.429222 1.737325-0.838004 3.515529-1.246786 5.232415-3.474651 14.450459-8.175649 34.255968-16.617006 60.561118-9.504192 29.738922-25.221876 49.626188-46.723833 59.089501-28.921357 12.754012-54.715529 0.878882-63.197764-3.02499l-0.633613-0.286148c-23.423234-10.669222-37.321836-36.790419-46.417245-87.622515-1.63513-9.07497-3.515529-27.47018-6.724472-59.273453-3.290699-32.702595-9.504192-94.203912-14.757045-124.147225a179.414611 179.414611 0 0 0-8.604871 29.575409c-3.903872 21.563273-8.502675 74.970699-12.937964 126.722555-7.153693 83.187226-12.263473 139.660519-18.62004 165.720399-12.263473 50.995609-42.452056 62.932056-59.273453 65.527824a61.562635 61.562635 0 0 1-9.279361 0.613174z"
    p-id="1651"></path>
</svg>