<svg xmlns="http://www.w3.org/2000/svg" viewBox="0 0 350.08 391.25">
  <defs>
    <style>
      .cls-1p {
        fill: #fff;
      }
    </style>
  </defs>
  <g id="图层_2" data-name="图层 2">
    <g id="图层_1-2" data-name="图层 1">
      <path class="cls-1p"
        d="M143.53,391.25a14.74,14.74,0,0,1-3.92-.53c-25.29-6.83-54.07-22.17-78.94-42.07-25.91-20.73-44.2-43.39-51.49-63.8C-1.59,254.7-.2,234.31.41,229.12c.9-23.19,10.19-44.85,29.2-68.12,16.71-20.44,40.07-40.86,64.56-61.72,12.23-10.42,23.94-26.62,33-45.61,8.17-17.2,11.09-30.57,10.88-34.08a16.31,16.31,0,0,1,7.1-16.74C151.5-1.32,159.8-.93,172,4.1A146.29,146.29,0,0,1,199.1,19.32c15.31,10.74,36.64,29.26,51.34,56.54a130.24,130.24,0,0,1,14.86,45.7c4.05-3.63,6.17-4.47,7.41-5A15,15,0,0,1,289.84,121c2.46,3,60.18,73.5,60.24,135.05.05,37.5-17.31,70.79-50.2,96.26-31.35,24.28-68.35,35.05-82.8,38.55a15,15,0,0,1-16.36-22.36c24-39.53,13.8-58.39,13.36-59.17-4.6-8.08-11.1-14.29-18.61-21.47s-16.28-15.55-24.39-27.19c-5-7.24-9.69-20.81-10.54-35.45-17.3,15.13-32.19,36.65-37.77,53.94-11,34.12,9.34,72.17,28.77,84.44a15,15,0,0,1-8,27.69Zm39.86-212.11A15,15,0,0,1,195,203.67c-8.71,10.6-3.09,34.33.73,39.82,6.38,9.17,13.55,16,20.48,22.64,8.45,8.07,17.19,16.42,24,28.32,3.51,6.17,11.69,25.31,1.63,56.69,33.29-13.9,78.36-42.44,78.3-95.1,0-20.6-9.14-47.06-26.37-76.52-6.09-10.41-12.18-19.46-17-26.25-4,4.77-9.43,11.7-16.62,21.68a15,15,0,0,1-26.77-12.19c7.08-30.18,1.57-58.5-16.36-84.17a144.77,144.77,0,0,0-51-44.38c-6.08,26.35-25.75,65.24-52.36,87.91-49.57,42.23-82.14,72.61-83.25,108.69a10.22,10.22,0,0,1-.16,1.77c-.14,1.26-1.7,17.21,7.22,42.18,7.19,20.11,31.4,44.62,59.34,63-7.76-21.12-9.83-45.26-2.55-67.85,10.9-33.77,47.47-78,84.55-90A15.06,15.06,0,0,1,183.39,179.14Zm-168,51.21h0ZM138.06,19.84h0Z" />
    </g>
  </g>
</svg>
