<?xml version="1.0" standalone="no"?><!DOCTYPE svg PUBLIC "-//W3C//DTD SVG 1.1//EN" "http://www.w3.org/Graphics/SVG/1.1/DTD/svg11.dtd"><svg t="1699421790454" class="icon" viewBox="0 0 1024 1024" version="1.1" xmlns="http://www.w3.org/2000/svg" p-id="1364" xmlns:xlink="http://www.w3.org/1999/xlink" width="16" height="16"><path d="M159.11528 716.084625m-101.773793 0a101.773793 101.773793 0 1 0 203.547587 0 101.773793 101.773793 0 1 0-203.547587 0Z" p-id="1365"></path><path d="M198.653447 374.589167m-183.423856 0a183.423856 183.423856 0 1 0 366.847711 0 183.423856 183.423856 0 1 0-366.847711 0Z" p-id="1366"></path><path d="M495.037701 840.576144m-183.423855 0a183.423856 183.423856 0 1 0 366.847711 0 183.423856 183.423856 0 1 0-366.847711 0Z" p-id="1367"></path><path d="M495.037701 178.94516m-119.323794 0a119.323794 119.323794 0 1 0 238.647588 0 119.323794 119.323794 0 1 0-238.647588 0Z" p-id="1368"></path><path d="M538.750579 484.611055m-140.562133 0a140.562133 140.562133 0 1 0 281.124266 0 140.562133 140.562133 0 1 0-281.124266 0Z" p-id="1369"></path><path d="M835.965723 675.512913m-140.562133 0a140.562133 140.562133 0 1 0 281.124265 0 140.562133 140.562133 0 1 0-281.124265 0Z" p-id="1370"></path><path d="M710.582517 298.248689m-71.314611 0a71.314611 71.314611 0 1 0 142.629222 0 71.314611 71.314611 0 1 0-142.629222 0Z" p-id="1371"></path><path d="M806.033446 443.856953m-71.314611 0a71.314611 71.314611 0 1 0 142.629223 0 71.314611 71.314611 0 1 0-142.629223 0Z" p-id="1372"></path><path d="M879.151695 127.592155m-127.592155 0a127.592155 127.592155 0 1 0 255.18431 0 127.592155 127.592155 0 1 0-255.18431 0Z" p-id="1373"></path></svg>