<svg xmlns="http://www.w3.org/2000/svg" viewBox="0 0 387.27 313.49">
  <defs>
    <style>
      .cls-666 {
        fill: #fff;
      }

      .cls-2 {
        opacity: 0.51;
      }

      .cls-3 {
        fill: #fffdfd;
      }
    </style>
  </defs>
  <g id="图层_2" data-name="图层 2">
    <g id="图层_1-2" data-name="图层 1">
      <path class="cls-666" d="M316.1,28h-251a14,14,0,0,1,0-28h251a14,14,0,0,1,0,28Z" />
      <path class="cls-666"
        d="M48,311.33a14,14,0,0,1-8.68-25c41.57-32.76,62.48-58.57,62.14-76.71-.29-16-18.37-29.15-39.3-44.43-21.46-15.66-45.78-33.42-56.55-60C-5.48,77.86,0,51,21,29.47A113.2,113.2,0,0,1,54.57,6.33,14,14,0,0,1,65.4,32.15a85.29,85.29,0,0,0-24.85,17.4C27.65,63,24.71,77.8,31.54,94.68c7.78,19.18,27.77,33.78,47.11,47.89,24.7,18,50.24,36.67,50.79,66.54.53,28.51-21.93,59.11-72.8,99.21A14,14,0,0,1,48,311.33Z" />
      <g class="cls-2">
        <path class="cls-3" d="M65.37,313.49a14,14,0,0,1-14-14v-3.64a14,14,0,0,1,28,0v3.64A14,14,0,0,1,65.37,313.49Z" />
        <path class="cls-3"
          d="M65.37,269.58a14,14,0,0,1-14-14v-7.32a14,14,0,0,1,28,0v7.32A14,14,0,0,1,65.37,269.58Zm0-47.58a14,14,0,0,1-14-14v-7.33a14,14,0,1,1,28,0V208A14,14,0,0,1,65.37,222Zm0-47.59a14,14,0,0,1-14-14v-7.33a14,14,0,1,1,28,0v7.33A14,14,0,0,1,65.37,174.41Zm0-47.59a14,14,0,0,1-14-14v-7.33a14,14,0,1,1,28,0v7.33A14,14,0,0,1,65.37,126.82Zm0-47.59a14,14,0,0,1-14-14V57.9a14,14,0,1,1,28,0v7.33A14,14,0,0,1,65.37,79.23Z" />
        <path class="cls-3" d="M65.37,31.64a14,14,0,0,1-14-14V14a14,14,0,1,1,28,0v3.64A14,14,0,0,1,65.37,31.64Z" />
      </g>
      <path class="cls-666" d="M307.72,313.49h-260a14,14,0,1,1,0-28h260a14,14,0,0,1,0,28Z" />
      <g class="cls-2">
        <path class="cls-3"
          d="M312.72,30.81a13.17,13.17,0,0,1-13.16-13.17V14a13.17,13.17,0,1,1,26.33,0v3.64A13.17,13.17,0,0,1,312.72,30.81Z" />
        <path class="cls-3"
          d="M312.72,268.75a13.16,13.16,0,0,1-13.16-13.17v-7.32a13.17,13.17,0,1,1,26.33,0v7.32A13.16,13.16,0,0,1,312.72,268.75Zm0-47.59A13.16,13.16,0,0,1,299.56,208v-7.33a13.17,13.17,0,1,1,26.33,0V208A13.16,13.16,0,0,1,312.72,221.16Zm0-47.59a13.16,13.16,0,0,1-13.16-13.16v-7.33a13.17,13.17,0,1,1,26.33,0v7.33A13.16,13.16,0,0,1,312.72,173.57Zm0-47.58a13.17,13.17,0,0,1-13.16-13.17v-7.33a13.17,13.17,0,1,1,26.33,0v7.33A13.17,13.17,0,0,1,312.72,126Zm0-47.59a13.17,13.17,0,0,1-13.16-13.17V57.9a13.17,13.17,0,1,1,26.33,0v7.33A13.17,13.17,0,0,1,312.72,78.4Z" />
        <path class="cls-3"
          d="M312.72,312.65a13.16,13.16,0,0,1-13.16-13.16v-3.64a13.17,13.17,0,1,1,26.33,0v3.64A13.16,13.16,0,0,1,312.72,312.65Z" />
      </g>
      <path class="cls-666"
        d="M305.81,311.33a14,14,0,0,1-8.68-25c41.57-32.76,62.48-58.57,62.14-76.71-.29-16-18.37-29.15-39.31-44.43-21.45-15.66-45.77-33.42-56.54-60C252.35,77.86,257.83,51,278.85,29.47A113.07,113.07,0,0,1,312.4,6.33a14,14,0,0,1,10.83,25.82h0a85.39,85.39,0,0,0-24.85,17.4c-12.9,13.49-15.85,28.25-9,45.13,7.77,19.18,27.77,33.78,47.1,47.89,24.7,18,50.24,36.67,50.8,66.54.52,28.51-21.93,59.11-72.81,99.21A14,14,0,0,1,305.81,311.33Z" />
    </g>
  </g>
</svg>