<?xml version="1.0" standalone="no"?><!DOCTYPE svg PUBLIC "-//W3C//DTD SVG 1.1//EN" "http://www.w3.org/Graphics/SVG/1.1/DTD/svg11.dtd"><svg t="1699421884131" class="icon" viewBox="0 0 1024 1024" version="1.1" xmlns="http://www.w3.org/2000/svg" p-id="1789" xmlns:xlink="http://www.w3.org/1999/xlink" width="16" height="16"><path d="M838.310579 954.772695H42.922156a39.406627 39.406627 0 0 1-39.406627-39.406627V119.977645A39.427066 39.427066 0 0 1 42.922156 80.550579h795.388423a39.427066 39.427066 0 0 1 39.427066 39.427066v795.388423a39.427066 39.427066 0 0 1-39.427066 39.406627zM82.328782 875.959441h716.57517V159.42515H82.328782zM979.033932 954.772695h-30.658682a39.406627 39.406627 0 0 1-7.950819-77.934372 39.406627 39.406627 0 0 1 78.016128 7.950819v30.658682A39.406627 39.406627 0 0 1 979.033932 954.772695z" p-id="1790"></path><path d="M849.184192 954.772695h-59.518723a39.406627 39.406627 0 1 1 0-78.813254h59.518723a39.406627 39.406627 0 0 1 0 78.813254z m-158.73022 0h-59.518722a39.406627 39.406627 0 1 1 0-78.813254h59.518722a39.406627 39.406627 0 1 1 0 78.813254z m-158.70978 0H472.143713a39.406627 39.406627 0 1 1 0-78.813254h59.518722a39.406627 39.406627 0 0 1 0 78.813254z m-158.73022 0h-59.518722a39.406627 39.406627 0 0 1 0-78.813254h59.518722a39.406627 39.406627 0 1 1 0 78.813254zM214.304192 954.772695h-30.658683a39.427066 39.427066 0 0 1-39.427066-39.406627v-30.658683a39.427066 39.427066 0 0 1 78.036567-7.869062 39.406627 39.406627 0 0 1-7.950818 78.016128zM183.645509 824.922954a39.427066 39.427066 0 0 1-39.427066-39.406627V725.997605a39.427066 39.427066 0 1 1 78.833693 0v59.518722a39.406627 39.406627 0 0 1-39.406627 39.406627z m0-158.70978a39.427066 39.427066 0 0 1-39.427066-39.427066v-59.518723a39.427066 39.427066 0 0 1 78.833693 0v59.518723A39.427066 39.427066 0 0 1 183.645509 666.315369z m0-158.73022A39.427066 39.427066 0 0 1 144.218443 468.055888v-59.498283a39.427066 39.427066 0 1 1 78.833693 0V468.055888a39.406627 39.406627 0 0 1-39.406627 39.427066z m0-158.70978a39.427066 39.427066 0 0 1-39.427066-39.427066v-59.518723a39.427066 39.427066 0 0 1 78.833693 0v59.518723a39.427066 39.427066 0 0 1-39.406627 39.427066zM183.645509 190.083832a39.427066 39.427066 0 0 1-39.427066-39.447505v-30.658682a39.427066 39.427066 0 0 1 39.427066-39.427066h30.658683a39.427066 39.427066 0 0 1 7.950818 78.036567A39.427066 39.427066 0 0 1 183.645509 190.083832zM849.184192 159.42515h-59.518723a39.427066 39.427066 0 1 1 0-78.833693h59.518723a39.427066 39.427066 0 0 1 0 78.833693z m-158.73022 0h-59.518722a39.427066 39.427066 0 0 1 0-78.833693h59.518722a39.427066 39.427066 0 1 1 0 78.833693z m-158.70978 0H472.143713a39.427066 39.427066 0 1 1 0-78.833693h59.518722a39.427066 39.427066 0 0 1 0 78.833693z m-158.73022 0h-59.518722a39.427066 39.427066 0 0 1 0-78.833693h59.518722a39.427066 39.427066 0 1 1 0 78.833693zM979.033932 190.083832a39.427066 39.427066 0 0 1-38.609501-31.455808 39.427066 39.427066 0 0 1 7.950819-78.077445h30.658682a39.427066 39.427066 0 0 1 39.406627 39.427066v30.658682A39.406627 39.406627 0 0 1 979.033932 190.083832zM979.033932 824.922954a39.406627 39.406627 0 0 1-39.406627-39.406627V725.997605a39.406627 39.406627 0 1 1 78.813254 0v59.518722A39.406627 39.406627 0 0 1 979.033932 824.922954z m0-158.607585a39.427066 39.427066 0 0 1-39.406627-39.427066v-59.620918a39.406627 39.406627 0 1 1 78.813254 0v59.518723A39.427066 39.427066 0 0 1 979.033932 666.315369z m0-158.730219A39.406627 39.406627 0 0 1 939.627305 468.055888v-59.498283a39.406627 39.406627 0 1 1 78.813254 0V468.055888A39.406627 39.406627 0 0 1 979.033932 507.482954z m0-158.709781a39.427066 39.427066 0 0 1-39.406627-39.427066v-59.620918a39.406627 39.406627 0 0 1 78.813254 0v59.518723A39.427066 39.427066 0 0 1 979.033932 348.773174z" p-id="1791"></path></svg>