<svg xmlns="http://www.w3.org/2000/svg" viewBox="0 0 500 500">
  <defs>
    <style>
      .cls-666 {
        fill: #fff;
      }
    </style>
  </defs>
  <g id="图层_2" data-name="图层 2">
    <g id="图层_1-2" data-name="图层 1">
      <path class="cls-666" d="M499,1V499H1V1H499m1-1H0V500H500V0Z" />
      <path class="cls-666"
        d="M438.79,476H61.42c-24.93,0-45.21-19.6-45.21-43.7V67.57c0-24.1,20.28-43.7,45.21-43.7H241.15a23,23,0,0,1,18.14,8.77,21.31,21.31,0,0,1,3.63,19.28A120.25,120.25,0,0,0,257.85,89c1.34,66.91,58.69,121.22,127.93,121.22h.36a131.28,131.28,0,0,0,63.79-16.66,23.38,23.38,0,0,1,22.7,0,21.79,21.79,0,0,1,11.37,19V432.3C484,456.4,463.72,476,438.79,476ZM61.57,432.16H438.64V246.1a179.48,179.48,0,0,1-52.37,8h-.49C292,254.07,214.31,180.5,212.5,89.85a163.36,163.36,0,0,1,1.06-22.14h-152Z" />
      <path class="cls-666"
        d="M461.32,244.18c-12.53,0-22.68-9.81-22.68-21.92v-5.74c0-12.1,10.15-21.92,22.68-21.92S484,204.42,484,216.52v5.74C484,234.37,473.85,244.18,461.32,244.18Zm0-60.76c-12.53,0-22.68-9.82-22.68-21.92v-5.74c0-12.11,10.15-21.92,22.68-21.92S484,143.65,484,155.76v5.74C484,173.6,473.85,183.42,461.32,183.42Zm0-60.77c-12.53,0-22.68-9.81-22.68-21.92V95c0-12.1,10.15-21.92,22.68-21.92S484,82.89,484,95v5.74C484,112.84,473.85,122.65,461.32,122.65Zm-6-54.94h-5.94c-12.53,0-22.68-9.81-22.68-21.92s10.15-21.92,22.68-21.92h5.94c12.52,0,22.67,9.82,22.67,21.92S467.82,67.71,455.3,67.71Zm-62.87,0h-5.94c-12.53,0-22.68-9.81-22.68-21.92S374,23.87,386.49,23.87h5.94c12.52,0,22.67,9.82,22.67,21.92S405,67.71,392.43,67.71Zm-62.87,0h-5.94c-12.53,0-22.68-9.81-22.68-21.92s10.15-21.92,22.68-21.92h5.94c12.52,0,22.67,9.82,22.67,21.92S342.08,67.71,329.56,67.71Zm-62.87,0h-5.94c-12.53,0-22.68-9.81-22.68-21.92s10.15-21.92,22.68-21.92h5.94c12.52,0,22.68,9.82,22.68,21.92S279.21,67.71,266.69,67.71Z" />
    </g>
  </g>
</svg>