<?xml version="1.0" standalone="no"?><!DOCTYPE svg PUBLIC "-//W3C//DTD SVG 1.1//EN" "http://www.w3.org/Graphics/SVG/1.1/DTD/svg11.dtd"><svg t="1699421823510" class="icon" viewBox="0 0 1025 1024" version="1.1" xmlns="http://www.w3.org/2000/svg" p-id="1511" xmlns:xlink="http://www.w3.org/1999/xlink" width="16.015625" height="16"><path d="M268.406547 997.122555H112.64A112.762635 112.762635 0 0 1 0 884.482555V142.338044A113.478004 113.478004 0 0 1 113.150978 29.023553c87.05022-0.163513 175.776447-0.122635 271.084072 0l64.46499 0.143074-15.513293 62.564151q-15.81988 63.729182-31.701078 127.437925-18.39521 74.01006-36.790419 148.040558a71.536926 71.536926 0 0 0-2.554891 14.021238c3.004551 0.91976 10.219561 0.960639 14.307386 0.981078h71.352974l50.157604 0.286148v258.023473l6.131737-11.445909c9.810778-18.109062 19.948583-36.790419 29.881996-55.471776l13.571577-25.487585c41.941078-78.649741 85.292455-159.956567 128.214611-241.181637a95.123673 95.123673 0 0 0 6.642714-14.307385 95.736846 95.736846 0 0 0-15.206707-3.127185c-26.570858-4.087824-53.75489-7.930379-79.998722-11.670739l-2.820599-0.408782-30.822195-4.43529-79.753454-11.364152 45.231777-66.815489c5.682076-8.400479 11.445908-16.800958 17.107545-25.037924l0.408782-0.592734c19.682874-28.61477 39.999361-58.19018 57.352176-88.583154 20.929661-36.606467 47.541397-50.934291 91.792096-49.462675 68.287106 2.186986 137.882315 1.778204 205.188343 1.369422l20.439122-0.143074h0.735808A113.048782 113.048782 0 0 1 1025.021956 145.117764c0.204391 98.720958 0 197.789381 0 293.607985v45.906267l0.878882 4.333094v393.861876a113.702834 113.702834 0 0 1-113.396247 113.539321l-330.030499 0.408783c-5.10978 0.327026-10.219561 0.327026-15.12495 0.327026z m314.210619-0.367904zM101.091896 884.462116a11.588982 11.588982 0 0 0 11.568543 11.568543h454.586507c3.372455 0 6.847106 0 8.747944-0.122635s4.087824-0.183952 6.131737-0.204391l330.173573-0.4701a12.488303 12.488303 0 0 0 12.447425-12.467864V498.224032a95.573333 95.573333 0 0 1-0.878882-12.999282v-46.560319c0-95.736846 0.22483-194.723513 0-293.260519a11.732056 11.732056 0 0 0-3.454212-8.461796 11.916008 11.916008 0 0 0-8.502675-3.454212l-20.439121 0.122635c-68.246228 0.408782-138.822515 0.838004-209.112655-1.430739h-1.492056c-10.46483 18.211257-21.501956 35.625389-32.702595 52.548982q17.148423 2.493573 34.276407 5.089342c10.219561 1.553373 25.548902 3.883433 41.287026 10.791856a99.334132 99.334132 0 0 1 49.401358 46.580759c23.791138 47.23481 1.532934 89.298523-7.971258 107.244071-42.922156 81.265948-86.396168 162.654531-128.357685 241.386028L623.270579 621.349301c-10.096926 18.926627-20.316487 37.812375-30.188583 56.064511l-13.285429 24.526946a94.469621 94.469621 0 0 1-106.385629 46.764711l-5.068902-1.267225a94.449182 94.449182 0 0 1-71.434731-91.689901v-65.568702-106.692216h-21.215808c-18.783553-0.102196-62.788982-0.388343-93.508982-39.917605s-20.152974-82.247026-15.635928-100.478722l36.790419-148.142755 16.126467-64.751137H113.253174a12.263473 12.263473 0 0 0-12.263473 12.263473v742.124071z m581.82004-591.83521l0.102196 0.122635 42.81996-26.75481-42.922156 26.570858a0.388343 0.388343 0 0 0 0 0.061317z" p-id="1512"></path></svg>