<?xml version="1.0" standalone="no"?><!DOCTYPE svg PUBLIC "-//W3C//DTD SVG 1.1//EN" "http://www.w3.org/Graphics/SVG/1.1/DTD/svg11.dtd"><svg t="1699408320640" class="icon" viewBox="0 0 1024 1024" version="1.1" xmlns="http://www.w3.org/2000/svg" p-id="1223" xmlns:xlink="http://www.w3.org/1999/xlink" width="16" height="16"><path d="M727.632735 695.134531H285.268822a33.642794 33.642794 0 0 1-31.128782-20.868343L20.582196 106.446946a33.663234 33.663234 0 0 1 31.149221-46.478563h918.493254a33.663234 33.663234 0 0 1 30.965269 46.887346L758.598004 674.695409a33.683673 33.683673 0 0 1-30.965269 20.439122z m-419.799122-67.449102h397.581796L919.229062 127.315289H101.991218z" p-id="1224"></path><path d="M725.956727 664.455409H293.076567l-122.021557-286.903952h679.846068l-124.944351 286.903952z" p-id="1225"></path><path d="M716.391218 967.608463H294.936527a35.196168 35.196168 0 0 1-35.196168-35.196168V680.622754a35.196168 35.196168 0 0 1 35.196168-35.196167h421.454691A35.196168 35.196168 0 0 1 751.587385 680.622754v251.789541a35.196168 35.196168 0 0 1-35.196167 35.196168zM330.153134 897.277445h351.041916v-181.438084H330.153134z" p-id="1226"></path></svg>
