<svg xmlns="http://www.w3.org/2000/svg" viewBox="0 0 418.7 402.53"><g id="图层_2" data-name="图层 2"><g id="图层_1-2" data-name="图层 1"><path d="M210,382.33c-105.41,0-191.17-85.76-191.17-191.16S104.6,0,210,0,401.17,85.76,401.17,191.17,315.42,382.33,210,382.33ZM210,20C115.63,20,38.84,96.78,38.84,191.17S115.63,362.33,210,362.33s171.16-76.78,171.16-171.16S304.39,20,210,20Z"/><path d="M210.71,402.53a209.3,209.3,0,0,1-40.85-4l11.68-58.85a152,152,0,0,0,140-45.27l43.93,40.87a211.54,211.54,0,0,1-154.77,67.26Z"/><path d="M358.7,184.15A152.08,152.08,0,0,0,285.44,56.54L316.33,5.11A211.52,211.52,0,0,1,418.7,183.41Z"/><path d="M15.37,267.73a211.53,211.53,0,0,1,25.41-204L89.17,99.19A152.06,152.06,0,0,0,71,245.21Z"/></g></g></svg>